<svg width="20" height="20" viewBox="0 0 20 20" fill="none" xmlns="http://www.w3.org/2000/svg">
<path d="M3.33333 18.3334V6.66675C3.33333 6.20841 3.49652 5.81605 3.82291 5.48966C4.1493 5.16328 4.54166 5.00008 4.99999 5.00008H11.6667C12.125 5.00008 12.5174 5.16328 12.8437 5.48966C13.1701 5.81605 13.3333 6.20841 13.3333 6.66675V18.3334L8.33333 15.8334L3.33333 18.3334ZM4.99999 15.8126L8.33333 14.0209L11.6667 15.8126V6.66675H4.99999V15.8126ZM15 15.0001V3.33341H5.83333V1.66675H15C15.4583 1.66675 15.8507 1.82994 16.1771 2.15633C16.5035 2.48272 16.6667 2.87508 16.6667 3.33341V15.0001H15Z" fill="#333333" fill-opacity="0.7"/>
</svg>
