<svg width="20" height="20" viewBox="0 0 20 20" fill="none" xmlns="http://www.w3.org/2000/svg">
<path d="M8.33333 9.99992C7.41666 9.99992 6.63194 9.67353 5.97916 9.02075C5.32639 8.36797 5 7.58325 5 6.66659C5 5.74992 5.32639 4.9652 5.97916 4.31242C6.63194 3.65964 7.41666 3.33325 8.33333 3.33325C9.25 3.33325 10.0347 3.65964 10.6875 4.31242C11.3403 4.9652 11.6667 5.74992 11.6667 6.66659C11.6667 7.58325 11.3403 8.36797 10.6875 9.02075C10.0347 9.67353 9.25 9.99992 8.33333 9.99992ZM1.66666 16.6666V14.3333C1.66666 13.8749 1.78472 13.4444 2.02083 13.0416C2.25694 12.6388 2.58333 12.3333 3 12.1249C3.70833 11.7638 4.50694 11.4583 5.39583 11.2083C6.28472 10.9583 7.26389 10.8333 8.33333 10.8333H8.625C8.70833 10.8333 8.79166 10.8471 8.875 10.8749C8.76389 11.1249 8.67014 11.3853 8.59375 11.6562C8.51736 11.927 8.45833 12.2083 8.41666 12.4999H8.33333C7.34722 12.4999 6.4618 12.6249 5.67708 12.8749C4.89236 13.1249 4.25 13.3749 3.75 13.6249C3.625 13.6944 3.5243 13.7916 3.44791 13.9166C3.37153 14.0416 3.33333 14.1805 3.33333 14.3333V14.9999H8.58333C8.66666 15.2916 8.77778 15.5798 8.91666 15.8645C9.05555 16.1492 9.20833 16.4166 9.375 16.6666H1.66666ZM13.3333 17.4999L13.0833 16.2499C12.9167 16.1805 12.7604 16.1076 12.6146 16.0312C12.4687 15.9548 12.3194 15.861 12.1667 15.7499L10.9583 16.1249L10.125 14.7083L11.0833 13.8749C11.0556 13.6805 11.0417 13.4999 11.0417 13.3333C11.0417 13.1666 11.0556 12.986 11.0833 12.7916L10.125 11.9583L10.9583 10.5416L12.1667 10.9166C12.3194 10.8055 12.4687 10.7117 12.6146 10.6353C12.7604 10.5589 12.9167 10.486 13.0833 10.4166L13.3333 9.16658H15L15.25 10.4166C15.4167 10.486 15.5729 10.5624 15.7187 10.6458C15.8646 10.7291 16.0139 10.8333 16.1667 10.9583L17.375 10.5416L18.2083 11.9999L17.25 12.8333C17.2778 12.9999 17.2917 13.1735 17.2917 13.3541C17.2917 13.5346 17.2778 13.7083 17.25 13.8749L18.2083 14.7083L17.375 16.1249L16.1667 15.7499C16.0139 15.861 15.8646 15.9548 15.7187 16.0312C15.5729 16.1076 15.4167 16.1805 15.25 16.2499L15 17.4999H13.3333ZM14.1667 14.9999C14.625 14.9999 15.0174 14.8367 15.3437 14.5103C15.6701 14.1839 15.8333 13.7916 15.8333 13.3333C15.8333 12.8749 15.6701 12.4826 15.3437 12.1562C15.0174 11.8298 14.625 11.6666 14.1667 11.6666C13.7083 11.6666 13.316 11.8298 12.9896 12.1562C12.6632 12.4826 12.5 12.8749 12.5 13.3333C12.5 13.7916 12.6632 14.1839 12.9896 14.5103C13.316 14.8367 13.7083 14.9999 14.1667 14.9999ZM8.33333 8.33325C8.79166 8.33325 9.18403 8.17006 9.51042 7.84367C9.8368 7.51728 10 7.12492 10 6.66659C10 6.20825 9.8368 5.81589 9.51042 5.4895C9.18403 5.16311 8.79166 4.99992 8.33333 4.99992C7.875 4.99992 7.48264 5.16311 7.15625 5.4895C6.82986 5.81589 6.66666 6.20825 6.66666 6.66659C6.66666 7.12492 6.82986 7.51728 7.15625 7.84367C7.48264 8.17006 7.875 8.33325 8.33333 8.33325Z" fill="#333333" fill-opacity="0.7"/>
</svg>
