<svg width="20" height="20" viewBox="0 0 20 20" fill="none" xmlns="http://www.w3.org/2000/svg">
<path d="M4.875 14.2501C5.58333 13.7084 6.375 13.2813 7.25 12.9688C8.125 12.6563 9.04167 12.5001 10 12.5001C10.9583 12.5001 11.875 12.6563 12.75 12.9688C13.625 13.2813 14.4167 13.7084 15.125 14.2501C15.6111 13.6806 15.9896 13.0348 16.2604 12.3126C16.5312 11.5904 16.6667 10.8195 16.6667 10.0001C16.6667 8.15286 16.0174 6.57994 14.7188 5.28133C13.4201 3.98272 11.8472 3.33341 10 3.33341C8.15278 3.33341 6.57986 3.98272 5.28125 5.28133C3.98264 6.57994 3.33333 8.15286 3.33333 10.0001C3.33333 10.8195 3.46875 11.5904 3.73958 12.3126C4.01042 13.0348 4.38889 13.6806 4.875 14.2501ZM10 10.8334C9.18056 10.8334 8.48958 10.5522 7.92708 9.98966C7.36458 9.42716 7.08333 8.73619 7.08333 7.91675C7.08333 7.0973 7.36458 6.40633 7.92708 5.84383C8.48958 5.28133 9.18056 5.00008 10 5.00008C10.8194 5.00008 11.5104 5.28133 12.0729 5.84383C12.6354 6.40633 12.9167 7.0973 12.9167 7.91675C12.9167 8.73619 12.6354 9.42716 12.0729 9.98966C11.5104 10.5522 10.8194 10.8334 10 10.8334ZM10 18.3334C8.84722 18.3334 7.76389 18.1147 6.75 17.6772C5.73611 17.2397 4.85417 16.6459 4.10417 15.8959C3.35417 15.1459 2.76042 14.264 2.32292 13.2501C1.88542 12.2362 1.66667 11.1529 1.66667 10.0001C1.66667 8.8473 1.88542 7.76397 2.32292 6.75008C2.76042 5.73619 3.35417 4.85425 4.10417 4.10425C4.85417 3.35425 5.73611 2.7605 6.75 2.323C7.76389 1.8855 8.84722 1.66675 10 1.66675C11.1528 1.66675 12.2361 1.8855 13.25 2.323C14.2639 2.7605 15.1458 3.35425 15.8958 4.10425C16.6458 4.85425 17.2396 5.73619 17.6771 6.75008C18.1146 7.76397 18.3333 8.8473 18.3333 10.0001C18.3333 11.1529 18.1146 12.2362 17.6771 13.2501C17.2396 14.264 16.6458 15.1459 15.8958 15.8959C15.1458 16.6459 14.2639 17.2397 13.25 17.6772C12.2361 18.1147 11.1528 18.3334 10 18.3334ZM10 16.6667C10.7361 16.6667 11.4306 16.5591 12.0833 16.3438C12.7361 16.1286 13.3333 15.8195 13.875 15.4167C13.3333 15.014 12.7361 14.7049 12.0833 14.4897C11.4306 14.2744 10.7361 14.1667 10 14.1667C9.26389 14.1667 8.56945 14.2744 7.91667 14.4897C7.26389 14.7049 6.66667 15.014 6.125 15.4167C6.66667 15.8195 7.26389 16.1286 7.91667 16.3438C8.56945 16.5591 9.26389 16.6667 10 16.6667ZM10 9.16675C10.3611 9.16675 10.6597 9.04869 10.8958 8.81258C11.1319 8.57647 11.25 8.27786 11.25 7.91675C11.25 7.55564 11.1319 7.25703 10.8958 7.02091C10.6597 6.7848 10.3611 6.66675 10 6.66675C9.63889 6.66675 9.34028 6.7848 9.10417 7.02091C8.86806 7.25703 8.75 7.55564 8.75 7.91675C8.75 8.27786 8.86806 8.57647 9.10417 8.81258C9.34028 9.04869 9.63889 9.16675 10 9.16675Z" fill="#333333" fill-opacity="0.7"/>
</svg>
