<svg width="12" height="14" viewBox="0 0 12 14" fill="none" xmlns="http://www.w3.org/2000/svg">
<path d="M10.9175 4.7145C10.856 4.753 9.39197 5.5655 9.39197 7.367C9.46097 9.4215 11.2395 10.142 11.27 10.142C11.2395 10.1805 11.0015 11.1235 10.2965 12.112C9.73697 12.9635 9.11597 13.822 8.17297 13.822C7.27597 13.822 6.95397 13.2545 5.91897 13.2545C4.80747 13.2545 4.49297 13.822 3.64197 13.822C2.69897 13.822 2.03197 12.9175 1.44197 12.074C0.675471 10.97 0.0239711 9.2375 0.000971102 7.574C-0.0145289 6.6925 0.154471 5.826 0.583471 5.09C1.18897 4.0625 2.26997 3.365 3.45047 3.342C4.35497 3.3115 5.15997 3.963 5.71197 3.963C6.24097 3.963 7.22997 3.342 8.34897 3.342C8.83197 3.3425 10.12 3.488 10.9175 4.7145ZM5.63547 3.166C5.47447 2.361 5.91897 1.556 6.33297 1.0425C6.86197 0.4215 7.69747 0 8.41797 0C8.46397 0.805 8.17247 1.5945 7.65147 2.1695C7.18397 2.7905 6.37897 3.258 5.63547 3.166Z" fill="#F7F7F7"/>
</svg>
