<svg width="16" height="16" viewBox="0 0 16 16" fill="none" xmlns="http://www.w3.org/2000/svg">
<path d="M8 11.3684C8.44 11.3684 8.81667 11.2035 9.13 10.8737C9.44333 10.5439 9.6 10.1474 9.6 9.68421C9.6 9.22105 9.44333 8.82456 9.13 8.49474C8.81667 8.16491 8.44 8 8 8C7.56 8 7.18333 8.16491 6.87 8.49474C6.55667 8.82456 6.4 9.22105 6.4 9.68421C6.4 10.1474 6.55667 10.5439 6.87 10.8737C7.18333 11.2035 7.56 11.3684 8 11.3684ZM1.6 16C1.16 16 0.783333 15.8351 0.47 15.5053C0.156667 15.1754 0 14.7789 0 14.3158V5.05263C0 4.58947 0.156667 4.19298 0.47 3.86316C0.783333 3.53333 1.16 3.36842 1.6 3.36842H4.8V1.68421C4.8 1.22105 4.95667 0.824561 5.27 0.494737C5.58333 0.164912 5.96 0 6.4 0H9.6C10.04 0 10.4167 0.164912 10.73 0.494737C11.0433 0.824561 11.2 1.22105 11.2 1.68421V3.36842H14.4C14.84 3.36842 15.2167 3.53333 15.53 3.86316C15.8433 4.19298 16 4.58947 16 5.05263V14.3158C16 14.7789 15.8433 15.1754 15.53 15.5053C15.2167 15.8351 14.84 16 14.4 16H1.6ZM1.6 14.3158H14.4V5.05263H1.6V14.3158ZM6.4 3.36842H9.6V1.68421H6.4V3.36842Z" fill="white"/>
</svg>
